<?xml version="1.0" encoding="UTF-8"?>
<svg id="Layer_2" data-name="Layer 2" xmlns="http://www.w3.org/2000/svg" xmlns:xlink="http://www.w3.org/1999/xlink" viewBox="0 0 485.81 129.08">
  <defs>
    <style>
      .cls-1 {
        fill: none;
      }

      .cls-2 {
        fill: #3063af;
      }

      .cls-3 {
        fill: url(#linear-gradient-5);
      }

      .cls-4 {
        fill: url(#linear-gradient-4);
      }

      .cls-5 {
        fill: url(#linear-gradient-3);
      }

      .cls-6 {
        fill: url(#linear-gradient-2);
      }

      .cls-7 {
        fill: url(#linear-gradient);
      }

      .cls-8 {
        fill: #29a5de;
      }

      .cls-9 {
        fill: #f1f2f2;
        font-family: HelveticaNeue-CondensedBold, 'Helvetica Neue';
        font-size: 64.3px;
        font-weight: 700;
      }

      .cls-9, .cls-10 {
        stroke: #231f20;
        stroke-miterlimit: 10;
      }

      .cls-10 {
        fill: #fff;
        font-family: HelveticaNeue-Italic, 'Helvetica Neue';
        font-size: 14.95px;
        font-style: italic;
        stroke-width: .25px;
      }

      .cls-11 {
        letter-spacing: -.04em;
      }

      .cls-12 {
        fill: #1a263f;
      }

      .cls-13 {
        letter-spacing: .04em;
      }
    </style>
    <linearGradient id="linear-gradient" x1="171.93" y1="5.3" x2="102.63" y2="55.73" gradientUnits="userSpaceOnUse">
      <stop offset="0" stop-color="#4397d0"/>
      <stop offset="1" stop-color="#3063af"/>
    </linearGradient>
    <linearGradient id="linear-gradient-2" x1="77.2" y1="96.4" x2="115.21" y2="64.24" gradientUnits="userSpaceOnUse">
      <stop offset="0" stop-color="#a49f91"/>
      <stop offset="1" stop-color="#cec6c3"/>
    </linearGradient>
    <linearGradient id="linear-gradient-3" x1="51.74" y1="113.59" x2="110.31" y2="36.33" gradientUnits="userSpaceOnUse">
      <stop offset="0" stop-color="#3063af"/>
      <stop offset="1" stop-color="#4397d0"/>
    </linearGradient>
    <linearGradient id="linear-gradient-4" x1="67.98" y1="85.03" x2="86.84" y2="6.7" xlink:href="#linear-gradient-3"/>
    <linearGradient id="linear-gradient-5" x1="11.3" y1="8.14" x2="99.75" y2="58.48" xlink:href="#linear-gradient"/>
  </defs>
  <g id="Layer_1" data-name="Layer 1">
    <g>
      <rect class="cls-12" width="485.81" height="129.08"/>
      <g>
        <g>
          <path class="cls-7" d="M175.57,9.47c-23.73,0-41.8,7.45-54.68,15.91h12.34l-14.74,14.74-.47-12.78c-6.57,15.3-22,22.04-22,22.04l7.86,10.67c52.44-12.21,71.69-50.58,71.69-50.58Z"/>
          <path class="cls-2" d="M103.88,60.04l10.02,13.6c52.34-1.08,61.67-64.18,61.67-64.18,0,0-19.25,38.37-71.69,50.58Z"/>
        </g>
        <g>
          <path class="cls-1" d="M122.96,35.65l-56.13,58.96c14.97-14.97,56.13-21.77,56.13-58.96Z"/>
          <path class="cls-6" d="M122.99,35.62l-.03.03c0,37.19-41.16,43.99-56.13,58.96,0,0,21.03,10.67,40.52-2.09,16.56-10.84,15.64-26.34,15.64-33.35v-23.55Z"/>
        </g>
        <g>
          <path class="cls-1" d="M110.22,26.99c-1.69,0-3.06,1.37-3.06,3.06s1.37,3.06,3.06,3.06,3.06-1.37,3.06-3.06-1.37-3.06-3.06-3.06Z"/>
          <path class="cls-5" d="M108.65,19.98h0c-6.78,0-11.43,2.82-14.14,7.19,4.3,3,8.3,7.13,10.42,12.77,4.55,12.09-.17,21.29-3.81,25.62-3.77,4.47-22.89,17.66-34.28,29.06,14.97-14.97,56.13-21.77,56.13-58.96l.03-.03s0,0,0,0c0-8.63-5.8-15.64-14.34-15.64ZM110.22,33.11c-1.69,0-3.06-1.37-3.06-3.06s1.37-3.06,3.06-3.06,3.06,1.37,3.06,3.06-1.37,3.06-3.06,3.06Z"/>
          <path class="cls-4" d="M94.5,27.17c-3.55,5.71-4.26,14.06-1.72,22.2l-18.61,24.27-45.44,45.44c8.72,0,17.08-3.46,23.25-9.63l14.84-14.84c11.39-11.39,30.51-24.59,34.28-29.06,3.65-4.33,8.36-13.53,3.81-25.62-2.12-5.63-6.12-9.77-10.42-12.77Z"/>
        </g>
        <g>
          <path class="cls-3" d="M101.55,60.57c-3.38-5.43-8.76-11.19-8.76-11.19,0,0-25.62-39.91-82.79-39.91,0,0,29.66,45.57,91.55,51.1Z"/>
          <path class="cls-2" d="M101.55,60.57C39.66,55.04,10,9.47,10,9.47c0,0,9.71,63.1,64.18,64.18,17.71.48,31.11-7.05,27.37-13.08Z"/>
        </g>
        <g>
          <text class="cls-9" transform="translate(211.98 87.5)"><tspan class="cls-11" x="0" y="0">T</tspan><tspan class="cls-13" x="28.36" y="0">o Scale</tspan></text>
          <text class="cls-10" transform="translate(269.05 29.79)"><tspan x="0" y="0">putting the world</tspan></text>
          <g>
            <polygon class="cls-8" points="184.5 43.23 184.5 13.24 267.04 13.24 267.04 10 175.57 10 175.57 43.23 184.5 43.23"/>
            <polygon class="cls-8" points="384.34 13.24 466.88 13.24 466.88 43.23 475.81 43.23 475.81 10 384.34 10 384.34 13.24"/>
            <polygon class="cls-8" points="267.04 115.84 184.5 115.84 184.5 85.85 175.57 85.85 175.57 119.08 267.04 119.08 267.04 115.84"/>
            <polygon class="cls-8" points="466.88 85.85 466.88 115.84 350.26 115.84 350.26 119.08 475.81 119.08 475.81 85.85 466.88 85.85"/>
          </g>
        </g>
      </g>
    </g>
  </g>
</svg>